<svg xmlns="http://www.w3.org/2000/svg" viewBox="0 0 32 32"><path fill="#fc739f" d="M21.66 28.52 21 25.76a1 1 0 0 0-1-.76h-8a1 1 0 0 0-1 .76l-.69 2.76a2 2 0 0 0 .36 1.71 2 2 0 0 0 1.58.77h7.44a2 2 0 0 0 1.58-.77 2 2 0 0 0 .39-1.71Z"/><path fill="#cb5b94" d="M21.3 30.23a2 2 0 0 1-1.58.77H16v-6h4a1 1 0 0 1 1 .76l.28 1.24.38 1.52a2 2 0 0 1-.36 1.71Z"/><path fill="#68818c" d="M9.27 12a1 1 0 0 0-1.13.45l-2.85 4.8a2 2 0 0 0-.29 1V22a2 2 0 0 0 2 2h2a1 1 0 0 0 1-1V13a1 1 0 0 0-.73-1zm17.44 5.25-2.85-4.76A1 1 0 0 0 22 13v10a1 1 0 0 0 1 1h2a2 2 0 0 0 2-2v-3.72a2 2 0 0 0-.29-1.03z"/><path fill="#485961" d="m26.71 17.25-2.85-4.76A1 1 0 0 0 22 13v10a1 1 0 0 0 1 1h2a2 2 0 0 0 2-2v-3.72a2 2 0 0 0-.29-1.03Z"/><path fill="#8f9da5" d="M23.5 10.24a15.16 15.16 0 0 0-7-9.11 1 1 0 0 0-1 0 15.16 15.16 0 0 0-7 9.11 15.1 15.1 0 0 0-.5 3.87V25a2 2 0 0 0 2 2h12a2 2 0 0 0 2-2V14.11a15.1 15.1 0 0 0-.5-3.87Z"/><path fill="#68818c" d="M24 14.11V25a2 2 0 0 1-2 2h-6V1a1 1 0 0 1 .5.13 15.16 15.16 0 0 1 7 9.11 15.1 15.1 0 0 1 .5 3.87Z"/><circle cx="16" cy="16" r="5" fill="#f6e17f"/><path fill="#face88" d="M21 16a5 5 0 0 1-5 5V11a5 5 0 0 1 5 5Z"/></svg>